<svg width="189" height="185" viewBox="0 0 189 185" fill="none" xmlns="http://www.w3.org/2000/svg">
<path d="M93.4575 55.6796L98.4332 51.2838C82.7983 37.4676 98.7871 14.5454 98.7871 14.2311L92.7479 10.7767C92.0366 12.0324 73.9156 38.409 93.4575 55.6796Z" fill="#EDC17C"/>
<path d="M41.6235 124.041L59.6771 76.0059C60.9453 72.8664 64.4282 70.9823 67.9127 72.2378H68.2298L103.072 87.3087C104.972 88.2499 106.239 89.8197 106.873 91.7038L109.407 104.262L188.593 135.658V179.612L96.7368 141.937L73.298 144.762C72.0313 144.762 70.7631 144.762 69.8135 144.134L44.791 131.89C41.9406 130.32 40.6724 127.18 41.6235 124.041Z" fill="#EFCCBF"/>
<path d="M24.2482 5.38834V8.54634C24.2482 18.9671 32.7355 27.4944 43.1074 27.4944C32.7355 27.4944 24.2482 36.0201 24.2482 46.4424V49.6004V46.4424C24.2482 36.0201 15.7609 27.4944 5.38898 27.4944C15.7609 27.4944 24.2482 18.9671 24.2482 8.54634V5.38834Z" fill="#F4B622"/>
<path d="M18.8595 74.2145V77.3725C18.8595 87.7933 27.3468 96.3205 37.7188 96.3205C27.3468 96.3205 18.8595 104.846 18.8595 115.269V118.427V115.269C18.8595 104.846 10.3723 96.3205 0.000305176 96.3205C10.3723 96.3205 18.8595 87.7933 18.8595 77.3725V74.2145Z" fill="#F4B622"/>
<path d="M127.525 154.781L188.593 179.612V135.607L140.381 116.748L127.525 154.781Z" fill="#4A4A56"/>
<path d="M122.251 141.893L116.748 139.923L125.614 111.359L131.117 113.657L122.251 141.893Z" fill="#4A4A56"/>
<path d="M58.0018 84.4175L77.2334 91.0351L75.2451 96.9903L55.68 90.7039L58.0018 84.4175Z" fill="#D8B4AD"/>
<path d="M54.0527 100.583L70.0488 107.04L68.366 113.155L52.0877 106.7L54.0527 100.583Z" fill="#D8B4AD"/>
<path d="M46.9302 113.155L62.8643 119.613L61.1271 125.728L44.9031 119.613L46.9302 113.155Z" fill="#D8B4AD"/>
<path d="M75.904 53.8835L80.8262 50.1228L64.21 28.8167C61.7489 25.9954 61.1328 21.9227 62.6714 18.4757C64.518 13.1499 70.3642 10.6423 75.596 12.5226L77.4425 13.1499L79.5956 7.19529L77.749 6.56954C69.4417 3.12254 59.9023 7.50893 56.8252 15.9696C54.6706 21.609 55.5946 27.8757 59.2863 32.5758L75.904 53.8835Z" fill="#F48922"/>
<path d="M128.136 75.4369L151.978 72.6083C161.148 71.6644 167.873 62.8641 166.955 53.4345C166.345 46.8334 162.066 41.4894 156.257 38.9754L153.506 37.7184L151.367 43.6902L154.118 44.9472C159.62 47.1481 162.37 53.7491 160.231 59.4062C158.703 63.1787 155.34 66.0073 151.367 66.3219L127.524 69.1505L128.136 75.4369Z" fill="#F48922"/>
<path d="M105.326 77.8585L117.613 76.6094C131.79 75.3602 144.076 66.3003 149.432 52.8691L157.624 32.2525C158.884 29.1289 157.308 25.3814 154.158 24.1307H153.843L87.3684 0.391964C84.218 -0.858726 80.4384 1.01578 79.177 4.13946L72.247 24.756C68.1505 37.2507 70.6718 50.9946 79.4923 60.991L87.9991 70.6747L54.289 158.138H41.6873C39.1675 158.138 36.6463 159.699 36.0171 162.198L34.1266 166.883L80.4384 185L82.3274 180.314C83.2735 177.816 82.6428 175.318 80.7522 173.443L71.6163 164.696L105.326 77.8585Z" fill="#F4B622"/>
<path d="M93.4575 55.6796L98.4332 51.2838C82.7983 37.4676 98.7871 14.5454 98.7871 14.2311L92.7479 10.7767C92.0366 12.0324 73.9156 38.409 93.4575 55.6796Z" fill="#F48922"/>
<path d="M41.6235 124.041L59.6771 76.0059C60.9453 72.8664 64.4282 70.9823 67.9127 72.2378H68.2298L103.072 87.3087C104.972 88.2499 106.239 89.8197 106.873 91.7038L109.407 104.262L188.593 135.658V179.612L96.7368 141.937L73.298 144.762C72.0313 144.762 70.7631 144.762 69.8135 144.134L44.791 131.89C41.9406 130.32 40.6724 127.18 41.6235 124.041Z" fill="#EFCCBF"/>
<path d="M109.82 104.175L141.894 117.116L127.525 154.466L96.9906 141.893L109.82 104.175Z" fill="#0C2E78"/>
<path d="M127.525 154.781L188.593 179.612V135.607L140.381 116.748L127.525 154.781Z" fill="#0C2E78"/>
<path d="M122.251 141.893L116.748 139.923L125.614 111.359L131.117 113.657L122.251 141.893Z" fill="#DBC72A"/>
<path d="M58.0018 84.4175L77.2334 91.0351L75.2451 96.9903L55.68 90.7039L58.0018 84.4175Z" fill="#D8B4AD"/>
<path d="M54.0527 100.583L70.0488 107.04L68.366 113.155L52.0877 106.7L54.0527 100.583Z" fill="#D8B4AD"/>
<path d="M46.9302 113.155L62.8643 119.613L61.1271 125.728L44.9031 119.613L46.9302 113.155Z" fill="#D8B4AD"/>
</svg>
