<svg width="373" height="580" viewBox="0 0 373 580" fill="none" xmlns="http://www.w3.org/2000/svg">
<path fill-rule="evenodd" clip-rule="evenodd" d="M340.318 114.725C359.93 104.667 373.351 84.2451 373.351 60.6887C373.351 27.1713 346.18 0 312.662 0C292.293 0 274.267 10.0352 263.26 25.4315C259.551 24.3783 255.636 23.8145 251.589 23.8145C236.778 23.8145 223.73 31.3673 216.088 42.8316C210.478 36.8036 202.474 33.0331 193.589 33.0331C181.579 33.0331 171.178 39.9237 166.124 49.9673C157.719 45.0621 147.943 42.2517 137.51 42.2517C118.477 42.2517 101.63 51.6046 91.3117 65.965C87.9212 65.0296 84.35 64.5298 80.6621 64.5298C74.3933 64.5298 68.4618 65.9738 63.182 68.5473C57.3631 58.3468 46.3853 51.4702 33.8013 51.4702C15.1334 51.4702 0 66.6036 0 85.2715C0 99.8929 9.28363 112.346 22.2779 117.058V580H340.318V114.725ZM213.915 86.8079H214.118C214.096 86.7673 214.074 86.7267 214.052 86.686C214.007 86.7268 213.961 86.7674 213.915 86.8079Z" fill="url(#paint0_linear_916_1155)"/>
<defs>
<linearGradient id="paint0_linear_916_1155" x1="181.298" y1="24.5828" x2="181.298" y2="419.06" gradientUnits="userSpaceOnUse">
<stop stop-color="#FAF8F5"/>
<stop offset="1" stop-color="white" stop-opacity="0"/>
</linearGradient>
</defs>
</svg>
