<svg width="267" height="176" viewBox="0 0 267 176" fill="none" xmlns="http://www.w3.org/2000/svg">
<g filter="url(#filter0_d_757_320)">
<path d="M25 34.4326L38.3945 31.0548L45.4266 29.3659L52.4587 27.8305L59.156 26.6022L62.6803 25.9602L64.5138 25.6809L67.1927 25.2203L69.8716 24.7597L79.9174 23.3778L86.9495 22.6102L93.9817 21.8425L107.376 20.7677L120.771 20.1535L134.5 20L149.234 20.3071L163.968 20.9212L171 21.5354L178.032 22.1495L192.431 23.6849L206.161 25.8345L212.858 27.0628L219.555 28.2911L232.28 31.2083L238.307 32.7437L239.982 33.2043L242.661 33.972L244 34.4326V132.93L237.972 134.648L231.945 136.257L225.583 137.865L219.555 139.152L205.826 141.887L199.128 143.013L195.78 143.547L192.431 144.03L185.399 144.944L178.367 145.748L171.67 146.391L164.972 146.874L163.298 147.035L160.954 147.196L157.94 147.357L150.908 147.678L144.881 147.839L136.509 148H130.26L122.445 147.839L118.092 147.678L114.073 147.517L108.046 147.196L105.702 147.035L97.3303 146.391L90.633 145.748L77.2385 144.139L69.8716 143.064L62.1697 141.777L55.4725 140.49L49.7798 139.313L43.4174 137.917L37.055 136.308L35.7156 135.986L34.0413 135.503L31.0275 134.699L25 132.93V34.4326Z" fill="#EECFB1"/>
</g>
<defs>
<filter id="filter0_d_757_320" x="0" y="0" width="267" height="176" filterUnits="userSpaceOnUse" color-interpolation-filters="sRGB">
<feFlood flood-opacity="0" result="BackgroundImageFix"/>
<feColorMatrix in="SourceAlpha" type="matrix" values="0 0 0 0 0 0 0 0 0 0 0 0 0 0 0 0 0 0 127 0" result="hardAlpha"/>
<feOffset dx="-1" dy="4"/>
<feGaussianBlur stdDeviation="12"/>
<feComposite in2="hardAlpha" operator="out"/>
<feColorMatrix type="matrix" values="0 0 0 0 0 0 0 0 0 0 0 0 0 0 0 0 0 0 0.12 0"/>
<feBlend mode="normal" in2="BackgroundImageFix" result="effect1_dropShadow_757_320"/>
<feBlend mode="normal" in="SourceGraphic" in2="effect1_dropShadow_757_320" result="shape"/>
</filter>
</defs>
</svg>
