<svg width="29" height="20" viewBox="0 0 29 20" fill="none" xmlns="http://www.w3.org/2000/svg">
<path fill-rule="evenodd" clip-rule="evenodd" d="M29 9.99998C29 9.73476 28.8946 9.48041 28.7071 9.29288C28.5196 9.10534 28.2652 8.99998 28 8.99998H4.41399L10.708 2.70798C10.801 2.61501 10.8747 2.50463 10.925 2.38315C10.9754 2.26167 11.0013 2.13147 11.0013 1.99998C11.0013 1.86849 10.9754 1.73829 10.925 1.61681C10.8747 1.49534 10.801 1.38496 10.708 1.29198C10.615 1.19901 10.5046 1.12525 10.3832 1.07493C10.2617 1.02462 10.1315 0.998718 9.99999 0.998718C9.8685 0.998718 9.7383 1.02462 9.61682 1.07493C9.49534 1.12525 9.38496 1.19901 9.29199 1.29198L1.29199 9.29198C1.19886 9.38487 1.12497 9.49522 1.07456 9.61671C1.02415 9.7382 0.998199 9.86845 0.998199 9.99998C0.998199 10.1315 1.02415 10.2618 1.07456 10.3832C1.12497 10.5047 1.19886 10.6151 1.29199 10.708L9.29199 18.708C9.38496 18.801 9.49534 18.8747 9.61682 18.925C9.7383 18.9753 9.8685 19.0012 9.99999 19.0012C10.1315 19.0012 10.2617 18.9753 10.3832 18.925C10.5046 18.8747 10.615 18.801 10.708 18.708C10.801 18.615 10.8747 18.5046 10.925 18.3831C10.9754 18.2617 11.0013 18.1315 11.0013 18C11.0013 17.8685 10.9754 17.7383 10.925 17.6168C10.8747 17.4953 10.801 17.385 10.708 17.292L4.41399 11H28C28.2652 11 28.5196 10.8946 28.7071 10.7071C28.8946 10.5196 29 10.2652 29 9.99998Z" fill="#FFEDDC"/>
</svg>
