<svg width="24" height="24" viewBox="0 0 24 24" fill="none" xmlns="http://www.w3.org/2000/svg">
<path d="M12.0009 3.00298C11.6073 3.00298 11.2176 3.0805 10.854 3.23111C10.4904 3.38172 10.16 3.60248 9.88171 3.88078C9.60341 4.15907 9.38265 4.48946 9.23204 4.85307C9.08143 5.21669 9.00391 5.6064 9.00391 5.99998C9.00391 6.39355 9.08143 6.78327 9.23204 7.14688C9.38265 7.51049 9.60341 7.84088 9.88171 8.11918C10.16 8.39747 10.4904 8.61823 10.854 8.76884C11.2176 8.91946 11.6073 8.99698 12.0009 8.99698C12.7958 8.99698 13.5581 8.68122 14.1201 8.11918C14.6822 7.55713 14.9979 6.79483 14.9979 5.99998C14.9979 5.20512 14.6822 4.44282 14.1201 3.88078C13.5581 3.31873 12.7958 3.00298 12.0009 3.00298Z" fill="#3D40C6"/>
<path d="M18.75 4.5C18.1533 4.5 17.581 4.73705 17.159 5.15901C16.7371 5.58097 16.5 6.15326 16.5 6.75C16.5 7.34674 16.7371 7.91903 17.159 8.34099C17.581 8.76295 18.1533 9 18.75 9C19.3467 9 19.919 8.76295 20.341 8.34099C20.7629 7.91903 21 7.34674 21 6.75C21 6.15326 20.7629 5.58097 20.341 5.15901C19.919 4.73705 19.3467 4.5 18.75 4.5Z" fill="#3D40C6"/>
<path d="M5.25 4.5C4.65326 4.5 4.08097 4.73705 3.65901 5.15901C3.23705 5.58097 3 6.15326 3 6.75C3 7.34674 3.23705 7.91903 3.65901 8.34099C4.08097 8.76295 4.65326 9 5.25 9C5.84674 9 6.41903 8.76295 6.84099 8.34099C7.26295 7.91903 7.5 7.34674 7.5 6.75C7.5 6.15326 7.26295 5.58097 6.84099 5.15901C6.41903 4.73705 5.84674 4.5 5.25 4.5Z" fill="#3D40C6"/>
<path d="M7.5 11.9895C7.50277 11.5935 7.66203 11.2147 7.94304 10.9356C8.22404 10.6566 8.60399 10.5 9 10.5H15C15.3978 10.5 15.7794 10.658 16.0607 10.9393C16.342 11.2206 16.5 11.6022 16.5 12V16.5C16.4999 16.9721 16.426 17.4412 16.281 17.8905C15.9489 18.9086 15.2647 19.7749 14.3513 20.3338C13.4379 20.8928 12.3551 21.1079 11.2974 20.9404C10.2398 20.7729 9.27642 20.2339 8.58042 19.42C7.88442 18.6062 7.50135 17.5709 7.5 16.5V12V11.9895Z" fill="#3D40C6"/>
<path d="M6 12C6 11.4525 6.1455 10.941 6.402 10.5H3C2.60218 10.5 2.22064 10.658 1.93934 10.9393C1.65804 11.2206 1.5 11.6022 1.5 12V15.75C1.4998 16.364 1.65034 16.9686 1.93841 17.5108C2.22648 18.0529 2.64326 18.5161 3.15216 18.8596C3.66106 19.203 4.24651 19.4163 4.85708 19.4806C5.46766 19.5449 6.0847 19.4584 6.654 19.2285C6.22227 18.3834 5.99808 17.4475 6 16.4985V12Z" fill="#3D40C6"/>
<path d="M17.9997 12V16.5C17.9997 17.4825 17.7642 18.4095 17.3457 19.2285C17.915 19.4584 18.532 19.5449 19.1426 19.4806C19.7532 19.4163 20.3386 19.203 20.8475 18.8596C21.3564 18.5161 21.7732 18.0529 22.0613 17.5108C22.3494 16.9686 22.4999 16.364 22.4997 15.75V12C22.4997 11.6022 22.3417 11.2206 22.0604 10.9393C21.7791 10.658 21.3975 10.5 20.9997 10.5H17.5977C17.8527 10.941 17.9997 11.4525 17.9997 12Z" fill="#3D40C6"/>
</svg>
