<svg width="24" height="24" viewBox="0 0 24 24" fill="none" xmlns="http://www.w3.org/2000/svg">
<path d="M2.00001 10.5C2.00037 8.88087 2.5247 7.30532 3.49463 6.00885C4.46457 4.71238 5.82802 3.76461 7.3812 3.30719C8.93439 2.84977 10.5939 2.90727 12.1117 3.4711C13.6295 4.03492 14.9241 5.07479 15.8019 6.43529C16.6798 7.79578 17.0938 9.40384 16.9821 11.0191C16.8704 12.6344 16.239 14.1702 15.1822 15.3969C14.1254 16.6236 12.7 17.4753 11.119 17.8248C9.53806 18.1744 7.88644 18.0029 6.41101 17.336C5.15301 17.626 3.79801 17.876 3.17501 17.988C3.01579 18.0165 2.85205 18.0057 2.69792 17.9567C2.54379 17.9077 2.40392 17.8218 2.29039 17.7066C2.17687 17.5914 2.09311 17.4503 2.04635 17.2955C1.99958 17.1407 1.99123 16.9768 2.02201 16.818C2.14001 16.208 2.40201 14.9 2.70301 13.675C2.23849 12.6811 1.99847 11.5971 2.00001 10.5ZM8.14401 6.30701C7.70201 6.54301 7.35401 6.91001 7.09101 7.39701C7.00493 7.57099 6.98965 7.77156 7.04839 7.95657C7.10713 8.14158 7.23531 8.2966 7.40598 8.38906C7.57665 8.48152 7.77653 8.50421 7.96358 8.45236C8.15063 8.4005 8.3103 8.27815 8.40901 8.11101C8.55601 7.84101 8.70701 7.70701 8.85101 7.63101C9.00101 7.55001 9.20501 7.50101 9.50001 7.50101C9.72401 7.50101 9.98701 7.58001 10.18 7.73901C10.351 7.87901 10.5 8.10301 10.5 8.50001C10.5 8.69501 10.425 8.78501 9.91201 9.18801C9.46201 9.54201 8.75001 10.116 8.75001 11.25C8.75001 11.4489 8.82903 11.6397 8.96968 11.7803C9.11033 11.921 9.3011 12 9.50001 12C9.69892 12 9.88969 11.921 10.0303 11.7803C10.171 11.6397 10.25 11.4489 10.25 11.25C10.25 10.88 10.414 10.701 10.838 10.367L10.923 10.302C11.31 10.004 12 9.47501 12 8.50001C12 7.65201 11.649 7.00201 11.132 6.57801C10.6693 6.20591 10.0938 6.00242 9.50001 6.00101C9.04501 6.00101 8.57801 6.07501 8.14401 6.30701ZM10.5 14C10.5 13.7348 10.3947 13.4804 10.2071 13.2929C10.0196 13.1054 9.76522 13 9.50001 13C9.23479 13 8.98044 13.1054 8.7929 13.2929C8.60536 13.4804 8.50001 13.7348 8.50001 14C8.50001 14.2652 8.60536 14.5196 8.7929 14.7071C8.98044 14.8947 9.23479 15 9.50001 15C9.76522 15 10.0196 14.8947 10.2071 14.7071C10.3947 14.5196 10.5 14.2652 10.5 14Z" fill="#3D40C6"/>
<path d="M9.40039 19C10.786 20.2881 12.6085 21.0028 14.5004 21C15.6004 21 16.6464 20.763 17.5894 20.336C18.8494 20.626 20.2104 20.876 20.8374 20.986C20.9969 21.0142 21.1608 21.003 21.315 20.9535C21.4692 20.9039 21.609 20.8176 21.7223 20.7018C21.8356 20.5861 21.9189 20.4445 21.9651 20.2892C22.0113 20.134 22.019 19.9699 21.9874 19.811C21.7799 18.7608 21.5499 17.7153 21.2974 16.675C21.742 15.723 21.9818 14.6882 22.001 13.6376C22.0203 12.587 21.8187 11.5441 21.4093 10.5764C20.9999 9.60873 20.3917 8.73781 19.6243 8.02009C18.8569 7.30236 17.9473 6.75382 16.9544 6.41C17.6692 7.71199 18.0303 9.17854 18.0019 10.6636C17.9734 12.1486 17.5563 13.6002 16.7921 14.8738C16.0279 16.1475 14.9434 17.1986 13.6465 17.9226C12.3495 18.6465 10.8856 19.018 9.40039 19Z" fill="#3D40C6"/>
</svg>
