<svg width="25" height="26" viewBox="0 0 25 26" fill="none" xmlns="http://www.w3.org/2000/svg">
<g clip-path="url(#clip0_24_1964)">
<path d="M13.8889 4.36367C13.8889 5.16678 13.2618 5.81822 12.5 5.81822C11.7382 5.81822 11.1111 5.16678 11.1111 4.36367V1.45456C11.1111 0.650722 11.7382 0 12.5 0C13.2618 0 13.8889 0.650722 13.8889 1.45456V4.36367Z" fill="#FFCC4D"/>
<path d="M6.37489 26C6.21934 26 6.06101 25.9624 5.91239 25.8852C5.6659 25.7532 5.47918 25.5257 5.39252 25.2518C5.30587 24.978 5.32622 24.6796 5.4492 24.4212L11.6575 11.3295C11.8325 10.9597 12.1909 10.7264 12.5832 10.7264C12.9756 10.7264 13.3339 10.9597 13.5089 11.3295L19.7179 24.4212C19.8412 24.6795 19.8617 24.9778 19.7752 25.2518C19.6886 25.5257 19.502 25.7532 19.2554 25.8852C19.1337 25.9489 19.0009 25.9868 18.8649 25.9967C18.7289 26.0067 18.5923 25.9884 18.4632 25.943C18.334 25.8975 18.2148 25.8259 18.1125 25.7321C18.0102 25.6384 17.9269 25.5245 17.8673 25.3969L12.5839 14.2567L7.30128 25.3969C7.21638 25.5774 7.08461 25.7295 6.92089 25.836C6.75717 25.9426 6.56804 25.9994 6.37489 26Z" fill="#FFAC33"/>
<path d="M12.584 14.7275C12.4933 14.7274 12.4034 14.7086 12.3197 14.672C12.236 14.6354 12.1601 14.5819 12.0965 14.5145L2.4389 4.33186C2.16946 4.04731 2.16946 3.58725 2.4389 3.30342C2.70834 3.01959 3.14515 3.01959 3.4139 3.30342L12.584 12.9711L21.7528 3.3027C21.8165 3.23533 21.8924 3.18183 21.9761 3.1453C22.0599 3.10878 22.1498 3.08997 22.2406 3.08997C22.3315 3.08997 22.4214 3.10878 22.5051 3.1453C22.5889 3.18183 22.6648 3.23533 22.7285 3.3027C22.8579 3.44 22.9304 3.62463 22.9304 3.81692C22.9304 4.00921 22.8579 4.19384 22.7285 4.33114L13.0722 14.5145C13.0084 14.5817 12.9324 14.6352 12.8486 14.6717C12.7648 14.7083 12.6749 14.7273 12.584 14.7275Z" fill="#58595B"/>
<path d="M23.6214 14.0003C23.6214 20.4266 18.6805 25.636 12.5839 25.636C6.48879 25.636 1.54712 20.4266 1.54712 14.0003C1.54712 7.57249 6.48879 2.3631 12.5839 2.3631C18.6798 2.36238 23.6214 7.57249 23.6214 14.0003Z" fill="#DD2E44"/>
<path d="M20.8617 14.0003C20.8617 18.8204 17.1569 22.7276 12.584 22.7276C8.01244 22.7276 4.30688 18.8204 4.30688 14.0003C4.30688 9.17944 8.01244 5.27222 12.584 5.27222C17.1569 5.27149 20.8617 9.17944 20.8617 14.0003Z" fill="#E6E7E8"/>
<path d="M20.8611 0.907837C20.3161 0.907743 19.7765 1.02076 19.274 1.24026C18.7716 1.45977 18.3162 1.78135 17.9347 2.18617L23.7882 8.35684C24.5673 7.53467 25.0028 6.42585 25 5.2715C25 2.86217 23.1465 0.907837 20.8611 0.907837ZM4.1389 0.907837C4.68392 0.907783 5.22347 1.02082 5.72596 1.24032C6.22845 1.45982 6.68378 1.78138 7.06529 2.18617L1.21182 8.35684C0.432697 7.53467 -0.00280817 6.42585 1.36275e-05 5.2715C1.36275e-05 2.86217 1.85279 0.907837 4.1389 0.907837Z" fill="#FFCC4D"/>
<path d="M15.9723 14.4444H12.5001C12.3159 14.4444 12.1393 14.3684 12.0091 14.2329C11.8788 14.0975 11.8057 13.9138 11.8057 13.7222V7.22222C11.8057 7.03068 11.8788 6.84698 12.0091 6.71153C12.1393 6.57609 12.3159 6.5 12.5001 6.5C12.6843 6.5 12.8609 6.57609 12.9912 6.71153C13.1214 6.84698 13.1946 7.03068 13.1946 7.22222V13H15.9723C16.1565 13 16.3331 13.0761 16.4634 13.2115C16.5936 13.347 16.6668 13.5307 16.6668 13.7222C16.6668 13.9138 16.5936 14.0975 16.4634 14.2329C16.3331 14.3684 16.1565 14.4444 15.9723 14.4444Z" fill="#414042"/>
</g>
<defs>
<clipPath id="clip0_24_1964">
<rect width="25" height="26" fill="white"/>
</clipPath>
</defs>
</svg>
