<svg width="82" height="82" viewBox="0 0 82 82" fill="none" xmlns="http://www.w3.org/2000/svg">
<path fill-rule="evenodd" clip-rule="evenodd" d="M41 81C63.0914 81 81 63.0914 81 41C81 18.9086 63.0914 1 41 1C18.9086 1 1 18.9086 1 41C1 63.0914 18.9086 81 41 81Z" stroke="#ED646C" stroke-opacity="0.2"/>
<path fill-rule="evenodd" clip-rule="evenodd" d="M41 73C58.6731 73 73 58.6731 73 41C73 23.3269 58.6731 9 41 9C23.3269 9 9 23.3269 9 41C9 58.6731 23.3269 73 41 73Z" stroke="#ED646C" stroke-opacity="0.501202"/>
<path fill-rule="evenodd" clip-rule="evenodd" d="M41 65C54.2548 65 65 54.2548 65 41C65 27.7452 54.2548 17 41 17C27.7452 17 17 27.7452 17 41C17 54.2548 27.7452 65 41 65Z" stroke="#ED646C"/>
<path d="M46.24 33.93L40.9362 39.2325L35.6337 33.93L33.8662 35.6975L39.1687 41L33.8662 46.3025L35.6337 48.07L40.9362 42.7675L46.24 48.07L48.0075 46.3025L42.705 41L48.0075 35.6975L46.24 33.93Z" fill="#ED646C"/>
</svg>
