<svg width="17" height="11" viewBox="0 0 17 11" fill="none" xmlns="http://www.w3.org/2000/svg">
<path d="M16.3016 5.33818C16.2787 5.28665 15.7261 4.06098 14.4927 2.82736C13.349 1.68351 11.3807 0.319855 8.49999 0.319855C5.61929 0.319855 3.65108 1.68344 2.50729 2.82742C1.27386 4.06098 0.721297 5.28665 0.698387 5.33824C0.675756 5.38918 0.664062 5.4443 0.664062 5.50004C0.664063 5.55578 0.675756 5.6109 0.698387 5.66184C0.721297 5.71337 1.27393 6.93883 2.50729 8.17213C3.65121 9.31585 5.61929 10.6792 8.49999 10.6792C11.3807 10.6792 13.3488 9.31585 14.4926 8.17213C15.7261 6.93883 16.2787 5.71337 16.3015 5.66184C16.3242 5.6109 16.3359 5.55577 16.3359 5.50002C16.3359 5.44426 16.3242 5.38913 16.3016 5.33818ZM8.49999 9.88229C6.4163 9.88229 4.59663 9.1242 3.09134 7.62913C2.46018 7.00219 1.9261 6.28458 1.50675 5.50001C1.9261 4.71526 2.4602 3.99747 3.0914 3.37036C4.59663 1.87489 6.41637 1.1166 8.49999 1.1166C10.5836 1.1166 12.4034 1.87482 13.9086 3.37023C14.5398 3.99731 15.0739 4.71507 15.4932 5.49981C15.0703 6.30997 12.9518 9.88223 8.49999 9.88223V9.88229ZM8.49999 2.44532C7.89583 2.44532 7.30524 2.62447 6.8029 2.96013C6.30056 3.29578 5.90903 3.77286 5.67783 4.33103C5.44663 4.8892 5.38614 5.5034 5.504 6.09595C5.62187 6.6885 5.9128 7.23279 6.34 7.66C6.76721 8.08721 7.3115 8.37814 7.90405 8.496C8.49661 8.61387 9.1108 8.55338 9.66897 8.32217C10.2271 8.09097 10.7042 7.69944 11.0399 7.1971C11.3755 6.69476 11.5547 6.10417 11.5547 5.50001C11.5538 4.69014 11.2316 3.91369 10.659 3.34103C10.0863 2.76836 9.30987 2.44623 8.49999 2.44532ZM8.49999 7.75782C8.05344 7.75782 7.61692 7.6254 7.24562 7.37731C6.87433 7.12922 6.58494 6.7766 6.41405 6.36404C6.24316 5.95148 6.19845 5.4975 6.28556 5.05953C6.37268 4.62156 6.58772 4.21925 6.90348 3.90349C7.21924 3.58773 7.62154 3.3727 8.05952 3.28558C8.49749 3.19846 8.95146 3.24317 9.36402 3.41406C9.77658 3.58495 10.1292 3.87434 10.3773 4.24563C10.6254 4.61693 10.7578 5.05346 10.7578 5.50001C10.7571 6.09861 10.519 6.67251 10.0958 7.09579C9.67249 7.51906 9.0986 7.75715 8.49999 7.75782Z" fill="#828282"/>
</svg>
